<?xml version="1.0" encoding="utf-8"?>
<!-- Generator: Adobe Illustrator 16.0.0, SVG Export Plug-In . SVG Version: 6.00 Build 0)  -->
<!DOCTYPE svg PUBLIC "-//W3C//DTD SVG 1.1//EN" "http://www.w3.org/Graphics/SVG/1.1/DTD/svg11.dtd">
<svg version="1.1" id="ansi_x5F_logo" xmlns="http://www.w3.org/2000/svg" xmlns:xlink="http://www.w3.org/1999/xlink" x="0px"
	 y="0px" width="477.368px" height="138.705px" viewBox="0 0 477.368 138.705" enable-background="new 0 0 477.368 138.705"
	 xml:space="preserve">
<g>
	<path fill="#FFFFFF" d="M112.683,138.705c-10.342,0-18.726-8.384-18.726-18.728V65.942l-61.595,65.432
		c-7.089,7.529-18.94,7.891-26.471,0.8c-7.53-7.09-7.889-18.94-0.8-26.471L99.047,5.892c5.262-5.59,13.401-7.404,20.539-4.571
		c7.136,2.83,11.822,9.729,11.822,17.407v101.25C131.409,130.321,123.024,138.705,112.683,138.705"/>
	<path fill="#FFFFFF" d="M263.53,137.729c-5.123,0-10.14-2.104-13.756-6.017l-61.11-65.137v53.401
		c0,10.344-8.384,18.728-18.726,18.728s-18.726-8.384-18.726-18.728V18.728c0-7.709,4.723-14.63,11.901-17.439
		c7.178-2.809,15.345-0.933,20.577,4.727l61.109,66.115V18.728c0-10.343,8.386-18.727,18.728-18.727
		c10.343,0,18.728,8.384,18.728,18.727v100.274c0,7.708-4.723,14.629-11.902,17.438C268.133,137.31,265.821,137.729,263.53,137.729"
		/>
	<path fill="#FFFFFF" d="M405.145,137.265h-87.139c-10.344,0-18.729-8.384-18.729-18.726c0-10.345,8.385-18.728,18.729-18.728
		h45.931l-60.038-68.769c-4.83-5.533-5.98-13.377-2.941-20.063c3.037-6.687,9.705-10.979,17.049-10.979h87.14
		c10.343,0,18.726,8.384,18.726,18.726c0,10.342-8.383,18.726-18.726,18.726h-45.933l60.039,68.769
		c4.83,5.532,5.98,13.377,2.941,20.063S412.489,137.265,405.145,137.265"/>
	<path fill="#FFFFFF" d="M458.637,137.728c-10.342,0-18.727-8.386-18.727-18.728V62.675c0-10.343,8.385-18.727,18.727-18.727
		s18.727,8.384,18.727,18.727V119C477.364,129.342,468.979,137.728,458.637,137.728"/>
	<path fill="#FFFFFF" d="M458.641,37.454c-4.926,0-9.752-2.002-13.238-5.488c-3.486-3.485-5.486-8.312-5.486-13.238
		c0-4.927,2-9.752,5.486-13.238c3.473-3.485,8.299-5.489,13.238-5.489c4.928,0,9.752,2.004,13.238,5.489
		c3.488,3.486,5.488,8.311,5.488,13.238c0,4.926-2,9.753-5.488,13.238C468.393,35.452,463.569,37.454,458.641,37.454"/>
</g>
</svg>
